<?xml version="1.0" encoding="utf-8"?>
<!-- Generator: Adobe Illustrator 22.0.1, SVG Export Plug-In . SVG Version: 6.00 Build 0)  -->
<svg version="1.1" id="Warstwa_1" xmlns="http://www.w3.org/2000/svg" xmlns:xlink="http://www.w3.org/1999/xlink" x="0px" y="0px"
	 viewBox="0 0 725.2 114" style="enable-background:new 0 0 725.2 114;" xml:space="preserve">
<style type="text/css">
	.st0{fill:#41C0F0;}
	.st1{fill:#0099DE;}
	.st2{fill:#FFFFFF;}
</style>
<g>
	<g>
		<g>
			<path class="st0" d="M62.8,109.4L18.3,64.9c-4.3-4.3-4.3-11.3,0-15.6L62.8,4.8c4.3-4.3,11.3-4.3,15.6,0l44.5,44.5
				c4.3,4.3,4.3,11.3,0,15.6l-44.5,44.5C74.1,113.7,67.1,113.7,62.8,109.4z"/>
		</g>
		<path class="st1" d="M66.2,111.8L8.3,87.2C2.6,84.8,0,78.3,2.4,72.7L27,14.8c2.4-5.6,8.9-8.2,14.5-5.9l57.9,24.6
			c5.6,2.4,8.2,8.9,5.9,14.5l-24.6,57.9C78.3,111.5,71.8,114.1,66.2,111.8z"/>
	</g>
	<g>
		<path class="st2" d="M216.3,48.4c0,16.4-12.5,26.7-32.3,26.7h-10.2v17.4H150V21.7h34.1C203.8,21.7,216.3,32,216.3,48.4z
			 M192.2,48.4c0-5.2-3.1-8.3-9.7-8.3h-8.7v16.6h8.7C189.1,56.7,192.2,53.6,192.2,48.4z"/>
		<path class="st2" d="M222.3,57.1c0-21.4,16.9-37,39.9-37c23.1,0,39.9,15.6,39.9,37s-16.9,37-39.9,37
			C239.2,94.1,222.3,78.6,222.3,57.1z M278.1,57.1c0-11-7.1-17.7-15.9-17.7c-8.8,0-15.9,6.7-15.9,17.7s7.1,17.7,15.9,17.7
			C271,74.8,278.1,68.1,278.1,57.1z"/>
		<path class="st2" d="M310.9,21.7h23.9V74h32v18.5h-55.8V21.7z"/>
		<path class="st2" d="M373.3,21.7h23.9v70.8h-23.9V21.7z"/>
		<path class="st2" d="M455.5,55.2h20.7v29.9c-8.6,5.9-20.4,9-30.8,9c-22.9,0-39.5-15.3-39.5-37s16.7-37,40-37
			c14,0,25.2,4.9,32.4,13.7L463,47.2c-4.4-5.2-9.6-7.8-15.9-7.8c-10.5,0-17.2,6.8-17.2,17.7c0,10.6,6.7,17.7,16.9,17.7
			c2.9,0,5.8-0.5,8.7-1.7V55.2z"/>
		<path class="st2" d="M483.6,57.1c0-21.4,16.9-37,39.9-37c23.1,0,39.9,15.6,39.9,37s-16.9,37-39.9,37
			C500.5,94.1,483.6,78.6,483.6,57.1z M539.4,57.1c0-11-7.1-17.7-15.9-17.7c-8.8,0-15.9,6.7-15.9,17.7s7.1,17.7,15.9,17.7
			C532.3,74.8,539.4,68.1,539.4,57.1z"/>
		<path class="st2" d="M642,21.7v70.8h-19.6l-26.9-32.2v32.2h-23.3V21.7h19.6l26.9,32.2V21.7H642z"/>
		<path class="st2" d="M723.3,21.7v70.8h-19.6l-26.9-32.2v32.2h-23.3V21.7h19.6L700,53.9V21.7H723.3z"/>
	</g>
</g>
</svg>
