<?xml version="1.0" encoding="utf-8"?>
<!-- Generator: Adobe Illustrator 22.0.1, SVG Export Plug-In . SVG Version: 6.00 Build 0)  -->
<svg version="1.1" id="Warstwa_1" xmlns="http://www.w3.org/2000/svg" xmlns:xlink="http://www.w3.org/1999/xlink" x="0px" y="0px"
	 viewBox="0 0 841.9 595.3" style="enable-background:new 0 0 841.9 595.3;" xml:space="preserve">
<style type="text/css">
	.st0{fill:#41C0F0;}
	.st1{fill:#0099DE;}
	.st2{fill:#FFFFFF;}
</style>
<g>
	<g>
		<g>
			<path class="st0" d="M121.1,350.5l-44.5-44.5c-4.3-4.3-4.3-11.3,0-15.6l44.5-44.5c4.3-4.3,11.3-4.3,15.6,0l44.5,44.5
				c4.3,4.3,4.3,11.3,0,15.6l-44.5,44.5C132.4,354.9,125.4,354.9,121.1,350.5z"/>
		</g>
		<path class="st1" d="M124.5,352.9l-57.9-24.6c-5.6-2.4-8.2-8.9-5.9-14.5L85.3,256c2.4-5.6,8.9-8.2,14.5-5.9l57.9,24.6
			c5.6,2.4,8.2,8.9,5.9,14.5L139,347C136.6,352.7,130.1,355.3,124.5,352.9z"/>
	</g>
	<g>
		<path class="st2" d="M274.6,289.6c0,16.4-12.5,26.7-32.3,26.7h-10.2v17.4h-23.9v-70.8h34.1C262.1,262.9,274.6,273.2,274.6,289.6z
			 M250.6,289.6c0-5.2-3.1-8.3-9.7-8.3h-8.7v16.6h8.7C247.4,297.9,250.6,294.7,250.6,289.6z"/>
		<path class="st2" d="M280.6,298.3c0-21.4,16.9-37,39.9-37c23.1,0,39.9,15.6,39.9,37s-16.9,37-39.9,37
			C297.5,335.3,280.6,319.7,280.6,298.3z M336.4,298.3c0-11-7.1-17.7-15.9-17.7c-8.8,0-15.9,6.7-15.9,17.7s7.1,17.7,15.9,17.7
			C329.4,316,336.4,309.3,336.4,298.3z"/>
		<path class="st2" d="M369.2,262.9h23.9v52.3h32v18.5h-55.8V262.9z"/>
		<path class="st2" d="M431.6,262.9h23.9v70.8h-23.9V262.9z"/>
		<path class="st2" d="M513.8,296.3h20.7v29.9c-8.6,5.9-20.4,9-30.8,9c-22.9,0-39.5-15.3-39.5-37s16.7-37,40-37
			c14,0,25.2,4.9,32.4,13.7l-15.3,13.4c-4.4-5.2-9.6-7.8-15.9-7.8c-10.5,0-17.2,6.8-17.2,17.7c0,10.6,6.7,17.7,16.9,17.7
			c2.9,0,5.8-0.5,8.7-1.7V296.3z"/>
		<path class="st2" d="M541.9,298.3c0-21.4,16.9-37,39.9-37s39.9,15.6,39.9,37s-16.9,37-39.9,37S541.9,319.7,541.9,298.3z
			 M597.8,298.3c0-11-7.1-17.7-15.9-17.7c-8.8,0-15.9,6.7-15.9,17.7s7.1,17.7,15.9,17.7C590.7,316,597.8,309.3,597.8,298.3z"/>
		<path class="st2" d="M700.3,262.9v70.8h-19.6l-26.9-32.2v32.2h-23.3v-70.8h19.6L677,295v-32.2H700.3z"/>
		<path class="st2" d="M781.6,262.9v70.8H762l-26.9-32.2v32.2h-23.3v-70.8h19.6l26.9,32.2v-32.2H781.6z"/>
	</g>
</g>
</svg>
